<?xml version="1.0" standalone="no"?>
<!DOCTYPE svg PUBLIC "-//W3C//DTD SVG 20010904//EN"
 "http://www.w3.org/TR/2001/REC-SVG-20010904/DTD/svg10.dtd">
<svg version="1.0" xmlns="http://www.w3.org/2000/svg"
 width="683.000000pt" height="747.000000pt" viewBox="0 0 683.000000 747.000000"
 preserveAspectRatio="xMidYMid meet">

<g transform="translate(0.000000,747.000000) scale(0.100000,-0.100000)"
fill="#0c4e88" stroke="none">
<path d="M3125 7416 c-301 -58 -524 -165 -676 -325 -44 -46 -78 -85 -76 -87 2
-2 41 6 88 17 220 52 470 79 751 79 l188 0 7 -27 c6 -27 -13 -732 -26 -940
l-6 -103 79 0 79 0 -6 168 c-4 92 -10 327 -14 522 -6 335 -5 356 12 370 15 12
49 15 189 13 277 -4 548 -35 739 -84 44 -11 82 -18 85 -15 2 3 -31 42 -74 86
-155 160 -366 263 -644 316 -118 22 -596 29 -695 10z"/>
<path d="M3683 6933 c-27 -42 -21 -113 41 -453 79 -433 73 -410 107 -410 44 0
213 57 327 111 282 132 433 300 464 514 6 44 8 97 4 117 -6 35 -10 39 -59 52
-111 31 -418 71 -617 81 -63 3 -145 8 -182 10 -65 5 -68 4 -85 -22z"/>
<path d="M2830 6940 c-125 -11 -415 -57 -478 -75 -55 -17 -62 -28 -62 -105 0
-123 67 -277 165 -376 69 -70 201 -160 309 -209 104 -47 254 -96 301 -98 l40
-2 37 165 c55 245 108 547 108 611 0 92 -4 94 -177 95 -81 1 -191 -2 -243 -6z"/>
<path d="M1816 6319 c-361 -205 -488 -301 -757 -569 -227 -227 -296 -308 -434
-515 -294 -441 -482 -964 -546 -1525 -16 -136 -16 -526 0 -660 70 -606 272
-1133 621 -1620 250 -349 593 -671 956 -898 397 -247 900 -420 1379 -474 184
-20 736 -17 890 5 341 50 647 145 943 292 493 246 866 540 1179 930 360 449
578 904 687 1436 36 176 45 263 52 498 14 478 -29 814 -157 1208 -258 795
-795 1445 -1549 1876 -63 36 -131 73 -150 81 l-35 14 -83 -93 c-45 -52 -82
-98 -82 -102 0 -4 65 -43 143 -86 174 -95 337 -196 351 -219 8 -13 -72 -181
-391 -820 -405 -811 -501 -986 -634 -1165 -88 -118 -250 -282 -379 -385 -114
-90 -898 -642 -1060 -746 -139 -89 -230 -133 -368 -178 -173 -57 -261 -67
-573 -68 l-276 -1 -48 -30 c-65 -40 -95 -97 -95 -180 0 -50 5 -69 29 -107 39
-61 124 -127 241 -187 156 -80 289 -117 500 -139 68 -7 94 -15 133 -40 63 -40
109 -47 212 -31 l84 12 36 -31 c70 -62 82 -64 160 -31 80 33 100 35 186 13 34
-9 76 -13 93 -10 17 4 85 33 151 65 206 102 548 232 700 267 100 23 294 23
415 0 277 -53 324 -58 435 -53 308 16 503 156 572 409 13 47 18 104 18 223 0
173 -6 211 -71 424 -19 62 -34 135 -34 161 0 159 127 378 447 772 173 212 528
598 551 598 56 0 211 -501 261 -845 69 -475 -5 -1089 -185 -1528 -263 -644
-709 -1174 -1269 -1511 -444 -268 -915 -424 -1376 -458 -216 -16 -593 2 -766
36 -655 131 -1197 403 -1651 832 -52 48 -137 137 -189 198 -548 637 -809 1416
-754 2254 15 226 107 654 188 872 93 250 282 571 481 819 275 342 725 692
1094 851 l76 33 -84 100 c-46 55 -84 104 -84 108 0 19 -31 5 -184 -82z"/>
<path d="M1960 5500 c-204 -43 -378 -143 -556 -318 -101 -100 -166 -190 -234
-327 -88 -177 -101 -234 -107 -450 -7 -250 16 -375 103 -564 140 -303 427
-538 759 -622 103 -27 357 -37 477 -20 157 23 366 108 506 207 202 143 374
394 438 641 31 120 42 314 25 456 -59 501 -474 926 -978 1002 -134 20 -326 18
-433 -5z m428 -106 c23 -3 42 -8 42 -12 0 -11 -343 -172 -366 -172 -35 0 -294
97 -294 110 0 4 8 10 18 13 9 2 58 17 107 32 127 38 323 50 493 29z m327 -125
c39 -22 106 -66 150 -97 92 -65 102 -55 -86 -90 -75 -14 -149 -37 -245 -77
-77 -31 -146 -58 -154 -61 -19 -5 -204 169 -199 187 11 37 389 195 439 184 14
-4 57 -24 95 -46z m-925 -70 c87 -27 196 -82 270 -133 85 -59 230 -188 230
-204 0 -18 -160 -332 -169 -332 -3 0 -40 30 -81 66 -157 137 -366 257 -565
324 -60 21 -111 42 -113 48 -4 14 189 216 233 244 36 23 97 19 195 -13z m1138
-186 c23 -6 24 -9 20 -89 -3 -75 -7 -91 -48 -171 l-45 -88 -95 -48 c-52 -26
-178 -85 -280 -132 l-185 -84 -33 32 c-27 26 -32 37 -28 60 8 38 72 175 126
266 l42 74 112 52 c129 61 236 101 321 120 75 17 66 16 93 8z m214 -193 c57
-115 99 -254 101 -335 2 -49 -3 -68 -25 -105 -32 -55 -107 -150 -118 -150 -4
0 -11 28 -15 63 -9 90 -31 161 -77 254 l-41 82 32 101 c43 134 68 192 84 188
6 -2 33 -46 59 -98z m-1727 15 c85 -22 114 -35 120 -55 3 -9 -11 -68 -30 -131
-20 -63 -41 -148 -46 -189 -19 -133 -16 -128 -46 -89 -30 39 -87 159 -115 238
-20 58 -35 198 -25 225 8 21 63 21 142 1z m343 -165 c49 -32 94 -66 101 -74
10 -12 9 -31 -3 -93 -21 -107 -34 -207 -46 -347 -5 -65 -11 -120 -13 -122 -6
-7 -212 143 -231 170 -19 24 -21 41 -20 141 2 120 13 182 50 278 27 68 50 107
64 107 5 0 49 -27 98 -60z m-547 -107 c88 -220 225 -394 424 -535 149 -106
293 -159 488 -179 61 -7 116 -15 121 -20 11 -10 -59 -157 -104 -218 l-32 -44
-101 5 c-229 11 -504 149 -714 357 -80 79 -103 130 -124 280 -12 83 -7 309 7
359 9 30 22 28 35 -5z m1704 -54 c38 -58 64 -139 75 -238 15 -135 22 -122 -90
-191 -57 -35 -107 -60 -115 -56 -10 3 -15 19 -15 47 0 56 -34 218 -65 308 -14
41 -25 76 -25 78 0 7 176 92 191 92 9 1 29 -18 44 -40z m-911 -11 c22 -18 86
-70 142 -115 l101 -83 12 -83 c6 -45 11 -124 11 -174 l0 -93 -92 0 c-117 0
-215 17 -239 41 -17 17 -19 35 -19 142 1 158 23 397 37 397 3 0 24 -14 47 -32z
m604 -149 c40 -81 55 -179 55 -359 0 -136 -3 -178 -21 -241 -39 -145 -167
-362 -220 -376 -31 -7 -85 19 -174 84 l-68 50 45 58 c111 142 140 257 140 547
l0 208 90 39 c50 22 99 39 110 38 13 -1 28 -18 43 -48z m622 -247 c-50 -217
-93 -286 -225 -361 -88 -51 -230 -111 -261 -111 -24 0 -24 1 12 178 l17 83 66
34 c92 47 190 118 301 219 115 105 123 101 90 -42z m-1711 -477 c77 -50 109
-78 136 -117 35 -53 43 -78 26 -78 -31 0 -321 253 -321 280 0 14 36 -5 159
-85z m1439 -37 c-15 -45 -392 -267 -415 -244 -3 3 12 27 33 53 22 27 50 63 63
80 18 26 36 37 94 54 40 11 104 31 142 44 84 28 88 29 83 13z m-1048 -113 c36
-7 82 -16 102 -19 20 -4 83 -35 140 -69 57 -35 111 -66 121 -70 31 -12 8 -27
-41 -27 -59 0 -204 18 -254 31 -43 11 -149 88 -178 130 -26 35 -18 53 19 44
14 -4 55 -13 91 -20z"/>
<path d="M1685 1503 c-143 -12 -275 -42 -275 -63 0 -56 378 -161 906 -249
1092 -183 1942 -278 2248 -251 111 10 171 31 171 61 0 40 -269 142 -595 224
-707 177 -1574 288 -2210 283 -113 -1 -223 -3 -245 -5z"/>
</g>
</svg>
