<?xml version="1.0" standalone="no"?>
<!DOCTYPE svg PUBLIC "-//W3C//DTD SVG 20010904//EN"
 "http://www.w3.org/TR/2001/REC-SVG-20010904/DTD/svg10.dtd">
<svg version="1.0" xmlns="http://www.w3.org/2000/svg"
 width="1024.000000pt" height="1024.000000pt" viewBox="0 0 1024.000000 1024.000000"
 preserveAspectRatio="xMidYMid meet">

<g transform="translate(0.000000,1024.000000) scale(0.100000,-0.100000)"
fill="#0c4e88" stroke="none">
<path d="M5030 9484 c-282 -27 -535 -136 -664 -287 -25 -30 -46 -57 -46 -60 0
-3 33 3 73 14 138 36 336 60 537 65 117 3 201 1 209 -4 10 -7 13 -34 12 -103
-2 -127 -20 -654 -25 -706 l-4 -43 66 0 65 0 -7 168 c-3 92 -9 280 -13 417 -5
226 -4 251 11 264 13 11 53 13 204 8 192 -5 394 -30 533 -66 40 -10 75 -18 77
-17 9 9 -78 102 -135 145 -178 133 -397 198 -693 205 -85 2 -175 2 -200 0z"/>
<path d="M4682 9089 c-103 -9 -315 -41 -383 -60 -33 -8 -37 -13 -43 -52 -8
-53 7 -136 38 -201 55 -121 160 -215 332 -298 101 -48 266 -99 280 -85 8 8 63
263 99 462 43 239 40 246 -117 244 -57 -1 -149 -6 -206 -10z"/>
<path d="M5365 9077 c-14 -22 -16 -38 -10 -85 7 -61 102 -579 109 -599 8 -21
182 33 311 96 189 93 301 210 340 355 16 60 17 157 2 172 -24 24 -373 73 -568
81 l-167 6 -17 -26z"/>
<path d="M3906 8610 c-301 -165 -460 -285 -681 -512 -203 -207 -341 -403 -470
-663 -318 -645 -369 -1370 -144 -2035 270 -800 905 -1440 1684 -1695 308 -102
552 -139 890 -139 275 0 416 16 634 69 214 53 313 89 507 185 502 248 883 598
1176 1084 174 286 290 622 340 976 20 146 17 605 -5 745 -84 527 -286 974
-611 1351 -219 255 -487 470 -791 634 -92 50 -98 52 -108 34 -6 -10 -37 -47
-70 -82 -33 -34 -58 -64 -56 -66 2 -1 60 -33 127 -70 139 -75 282 -164 282
-176 0 -10 -485 -989 -599 -1207 -212 -408 -359 -574 -746 -841 -77 -53 -225
-157 -330 -231 -288 -205 -401 -276 -500 -316 -194 -78 -328 -98 -585 -89
-166 7 -177 6 -217 -14 -72 -37 -105 -110 -89 -196 26 -137 369 -306 621 -306
41 0 61 -6 96 -30 57 -39 95 -45 173 -29 l64 12 44 -36 c25 -21 52 -37 61 -37
9 0 41 12 72 27 51 25 58 26 97 14 95 -29 123 -27 196 18 76 46 396 174 543
218 130 38 271 39 449 1 178 -38 257 -43 368 -24 113 20 183 51 252 113 85 76
121 154 139 303 15 115 -1 240 -51 399 -40 130 -41 137 -31 198 24 136 139
317 407 638 116 138 373 415 387 415 29 0 131 -287 173 -486 72 -343 74 -641
6 -999 -47 -246 -111 -426 -236 -664 -84 -159 -116 -209 -231 -358 -279 -364
-585 -596 -1056 -799 -163 -70 -441 -141 -646 -165 -139 -15 -505 -7 -626 15
-316 58 -603 156 -848 292 -140 78 -193 112 -332 218 -293 223 -534 520 -706
871 -109 223 -170 415 -220 700 -31 175 -34 563 -5 720 20 111 87 392 112 470
87 268 291 602 506 831 246 260 533 467 801 578 l38 16 -58 67 c-32 38 -65 78
-73 91 l-15 22 -109 -60z"/>
<path d="M4055 7949 c-169 -23 -297 -82 -440 -202 -124 -105 -203 -207 -270
-350 -57 -120 -77 -212 -77 -367 -1 -204 37 -346 136 -514 115 -194 332 -351
561 -408 127 -31 333 -31 459 0 100 25 245 91 321 146 198 143 333 357 374
590 15 84 14 261 -3 348 -70 361 -349 652 -708 738 -100 24 -257 32 -353 19z
m263 -95 c28 -4 52 -10 52 -14 0 -4 -21 -15 -47 -25 -27 -10 -92 -41 -145 -69
-94 -49 -98 -50 -130 -37 -18 8 -75 28 -127 46 -51 18 -90 34 -85 37 19 11
142 48 189 57 60 11 219 13 293 5z m255 -90 c29 -15 87 -52 130 -82 l79 -56
-88 -13 c-101 -15 -152 -30 -281 -85 l-93 -40 -80 73 c-56 51 -77 76 -70 84
27 33 278 138 343 144 4 1 31 -11 60 -25z m-750 -60 c129 -33 255 -106 372
-215 l64 -60 -65 -132 c-36 -72 -67 -133 -70 -136 -2 -3 -21 11 -42 31 -141
133 -356 254 -529 298 -24 6 -43 15 -43 20 0 6 44 55 98 110 109 111 110 112
215 84z m962 -220 c0 -52 -6 -74 -40 -140 l-40 -78 -100 -49 c-55 -27 -156
-74 -224 -104 l-123 -55 -26 26 -26 26 19 57 c11 31 42 96 70 145 l51 88 114
55 c120 57 244 96 295 92 30 -2 30 -2 30 -63z m165 -117 c39 -84 70 -200 70
-259 0 -18 -10 -49 -21 -68 -27 -44 -88 -120 -97 -120 -4 0 -8 25 -9 54 -3 65
-34 161 -70 219 -29 46 -31 34 28 204 37 107 35 108 99 -30z m-1351 24 c67
-20 67 -24 22 -152 -17 -47 -34 -119 -37 -159 l-7 -73 -20 24 c-31 37 -94 178
-106 237 -13 61 -14 135 -4 146 10 10 81 -1 152 -23z m238 -123 c41 -29 77
-57 80 -64 2 -6 -3 -38 -11 -70 -14 -55 -33 -217 -39 -327 l-2 -48 -75 51
c-128 88 -130 91 -130 185 0 45 5 108 11 141 12 65 64 184 80 184 6 0 45 -23
86 -52z m-433 -113 c63 -189 295 -417 505 -496 77 -28 182 -49 252 -49 45 0
59 -3 59 -15 0 -24 -45 -117 -79 -162 -30 -42 -32 -43 -89 -43 -118 0 -304 67
-435 157 -81 56 -184 149 -212 192 -35 53 -60 218 -51 335 11 159 20 173 50
81z m1386 -82 c13 -34 24 -92 27 -140 l6 -82 -79 -50 c-44 -28 -85 -51 -91
-51 -9 0 -13 16 -13 48 0 59 -23 170 -51 245 -12 32 -20 59 -18 60 2 1 38 19
79 39 l75 37 22 -24 c11 -13 31 -50 43 -82z m-683 -4 l112 -92 11 -66 c6 -36
10 -100 8 -141 l-3 -75 -85 1 c-81 2 -150 14 -178 32 -8 6 -13 37 -13 98 -1
100 20 334 30 334 4 0 57 -41 118 -91z m405 -55 c49 -112 61 -346 23 -486 -31
-119 -141 -298 -182 -298 -21 0 -72 28 -131 72 l-53 40 34 41 c81 99 118 222
119 402 1 66 -2 138 -6 161 l-7 41 83 36 c46 19 87 36 91 36 4 1 17 -20 29
-45z m508 -122 c0 -39 -34 -170 -60 -230 -26 -61 -55 -89 -145 -141 -68 -40
-199 -90 -210 -80 -2 3 6 52 18 108 l23 103 41 18 c70 31 187 115 254 183 35
35 67 64 72 65 4 1 7 -11 7 -26z m-1321 -494 c28 -15 92 -118 74 -118 -33 0
-263 202 -263 230 0 5 36 -14 79 -43 44 -29 93 -60 110 -69z m1087 3 c-25 -40
-280 -191 -324 -191 -9 0 -1 14 20 38 19 21 43 52 53 69 15 25 29 33 89 47 39
10 91 25 116 35 47 18 56 19 46 2z m-777 -97 c45 -5 72 -17 137 -60 45 -30 86
-54 92 -54 6 0 14 -5 18 -12 11 -17 -200 -3 -259 18 -50 17 -147 102 -147 129
0 11 8 11 51 0 29 -8 77 -17 108 -21z"/>
<path d="M3760 4739 c-129 -11 -204 -30 -208 -51 -9 -49 309 -134 795 -213
1040 -170 1674 -229 1828 -173 60 22 56 42 -14 77 -205 104 -813 243 -1351
310 -400 50 -825 70 -1050 50z"/>
<path d="M3660 2475 l0 -795 150 0 150 0 2 366 3 367 103 -2 102 -2 0 140 0
141 -105 0 -105 0 0 290 0 290 -150 0 -150 0 0 -795z"/>
<path d="M7300 2695 l0 -575 150 0 150 0 0 245 0 245 105 0 105 0 0 136 0 136
-105 -4 -105 -4 0 198 0 198 -150 0 -150 0 0 -575z"/>
<path d="M4427 3253 c-10 -10 -8 -221 2 -227 4 -3 119 -6 255 -6 270 -1 271
-2 242 -58 -23 -44 -67 -67 -196 -103 -172 -47 -180 -49 -253 -49 l-69 0 8
-127 c3 -71 8 -130 11 -133 2 -2 59 4 126 13 129 19 252 55 298 87 18 14 44
20 78 20 l51 0 0 -100 0 -100 -320 0 -320 0 0 -125 0 -125 788 0 c434 0 791 2
793 4 2 2 3 59 1 125 l-3 121 -325 0 -324 0 0 90 0 90 38 -5 c187 -26 380 -59
442 -75 41 -11 80 -20 87 -20 7 0 14 40 18 118 4 64 7 119 7 122 -2 8 -208 48
-304 59 -132 15 -286 94 -288 147 0 15 147 24 378 24 l182 0 0 120 0 120 -698
0 c-384 0 -702 -3 -705 -7z"/>
<path d="M6207 3223 c-4 -3 -7 -206 -7 -450 l0 -443 460 0 460 0 0 135 0 135
-305 0 -305 0 0 180 0 180 294 0 c272 0 295 1 299 18 3 9 4 69 4 132 l-2 115
-446 3 c-245 1 -449 -1 -452 -5z"/>
<path d="M2550 2510 l0 -710 383 0 c339 0 453 6 550 26 l27 6 0 135 0 135 -37
-6 c-93 -15 -282 -26 -445 -26 l-178 0 0 175 0 175 290 0 290 0 0 135 0 135
-290 0 -290 0 0 135 0 135 295 0 295 0 0 130 0 130 -445 0 -445 0 0 -710z"/>
<path d="M6279 2218 c0 -2 -1 -121 -2 -266 l-2 -262 683 0 682 0 0 130 0 130
-535 0 -535 0 0 135 0 135 -145 0 c-80 0 -145 -1 -146 -2z"/>
<path d="M4440 2025 l0 -115 535 0 535 0 0 -120 0 -120 150 0 150 0 0 235 0
235 -685 0 -685 0 0 -115z"/>
<path d="M1840 1271 l0 -34 48 7 c74 9 74 8 76 -157 0 -80 3 -148 6 -150 3 -3
17 -8 32 -12 l27 -7 3 163 3 164 58 0 c57 -1 57 0 57 30 l0 30 -155 0 -155 0
0 -34z"/>
<path d="M2247 1293 c-3 -10 -30 -97 -61 -192 -30 -96 -54 -176 -53 -177 1 -1
16 1 34 3 27 4 34 12 46 47 l14 41 75 3 76 3 17 -51 c16 -49 17 -50 57 -50 22
0 38 4 36 8 -1 5 -34 92 -73 195 l-70 187 -46 0 c-36 0 -48 -4 -52 -17z m87
-137 c14 -37 26 -72 26 -77 0 -5 -27 -9 -61 -9 -45 0 -60 3 -56 13 2 6 15 45
28 85 12 39 26 69 30 65 4 -5 19 -39 33 -77z"/>
<path d="M2459 1303 c-1 -2 -1 -15 -2 -30 -1 -24 3 -28 29 -29 16 0 44 -1 62
-2 l32 -2 0 -160 0 -160 30 2 30 2 0 153 c0 106 4 154 12 159 6 4 36 6 65 5
l53 -2 0 33 0 33 -155 0 c-85 0 -155 -1 -156 -2z"/>
<path d="M2816 1135 c-73 -231 -69 -215 -54 -215 40 1 58 14 71 54 l14 41 75
3 76 3 14 -43 c14 -41 17 -43 56 -46 l42 -3 -25 63 c-13 35 -45 120 -72 190
l-48 128 -47 -2 -48 -2 -54 -171z m160 -40 c6 -25 6 -25 -55 -25 -34 0 -61 1
-61 3 0 8 50 148 56 159 7 11 44 -74 60 -137z"/>
<path d="M3310 1126 c0 -102 0 -189 0 -193 0 -5 43 -7 95 -7 112 2 158 21 193
80 19 33 22 51 20 116 -2 58 -8 83 -24 105 -32 45 -98 71 -196 79 l-88 7 0
-187z m161 114 c57 -16 82 -50 87 -120 7 -95 -39 -140 -143 -140 l-45 0 0 135
0 135 33 0 c17 0 48 -5 68 -10z"/>
<path d="M3716 1128 c-32 -101 -61 -189 -63 -195 -3 -9 7 -13 30 -13 34 0 36
3 52 50 l17 50 73 0 73 0 18 -45 c16 -43 19 -45 55 -45 38 0 38 0 28 28 -6 15
-28 74 -49 132 -21 58 -48 131 -60 163 l-21 57 -47 0 -47 0 -59 -182z m145 25
c28 -83 28 -83 -42 -83 -54 0 -60 2 -54 18 4 9 16 42 26 72 32 92 29 87 40 67
6 -9 19 -43 30 -74z"/>
<path d="M4070 1120 l0 -190 110 0 c106 0 111 1 119 23 5 12 7 25 4 30 -2 4
-42 7 -89 7 l-84 0 0 50 0 50 80 0 80 0 0 30 0 30 -81 0 -80 0 3 48 3 47 83 3
82 3 0 29 0 30 -115 0 -115 0 0 -190z"/>
<path d="M4355 1268 c4 -24 26 -110 49 -193 l41 -150 31 -3 31 -3 38 140 c21
78 41 141 45 141 3 0 22 -62 41 -137 34 -137 34 -138 64 -141 l30 -3 44 178
c25 98 46 186 49 196 3 13 -2 17 -25 17 l-30 0 -33 -136 c-18 -74 -36 -132
-40 -127 -6 7 -15 38 -60 211 -10 37 -14 42 -40 42 -32 0 -26 13 -87 -197 -16
-57 -33 -83 -33 -50 0 6 -14 67 -32 135 -32 120 -33 122 -61 122 -28 0 -29 -1
-22 -42z"/>
<path d="M4940 1292 c-55 -30 -83 -90 -84 -181 -1 -95 20 -136 84 -169 57 -30
154 -28 197 4 53 40 66 68 71 152 6 107 -18 164 -80 192 -56 25 -142 26 -188
2z m159 -58 c29 -21 51 -72 51 -119 0 -87 -56 -142 -133 -132 -60 8 -89 43
-95 111 -5 64 9 108 46 136 31 25 98 26 131 4z"/>
<path d="M5350 1293 c-97 -50 -108 -279 -17 -347 41 -30 183 -31 223 0 93 69
93 271 1 338 -40 29 -158 34 -207 9z m162 -54 c44 -23 62 -127 34 -194 -27
-64 -130 -86 -178 -37 -44 44 -43 188 2 224 25 20 109 25 142 7z"/>
<path d="M5850 1115 l0 -195 30 0 30 0 0 132 0 132 43 -80 c60 -114 63 -118
78 -112 8 3 34 47 59 96 25 50 47 91 50 91 3 1 5 -56 5 -126 l0 -128 30 -3 30
-3 -1 193 -1 193 -29 3 c-27 3 -32 -3 -87 -103 -32 -58 -60 -105 -62 -105 -2
0 -30 47 -62 105 -52 94 -61 105 -85 105 l-28 0 0 -195z"/>
<path d="M6362 1290 c-95 -58 -101 -277 -11 -343 41 -30 144 -35 202 -9 64 28
87 75 87 179 0 99 -19 139 -80 171 -59 29 -151 30 -198 2z m180 -69 c32 -28
33 -32 33 -105 0 -68 -3 -78 -26 -102 -53 -52 -151 -39 -184 26 -32 62 -10
175 38 198 12 6 41 11 64 11 34 1 50 -5 75 -28z"/>
<path d="M6730 1115 l0 -195 83 0 c146 0 207 33 207 110 0 32 -6 48 -28 70
-27 27 -28 28 -10 50 22 27 23 88 3 117 -21 30 -74 43 -172 43 l-83 0 0 -195z
m144 139 c63 -9 87 -41 62 -79 -16 -24 -22 -26 -79 -23 l-62 3 -3 39 c-6 68
-2 71 82 60z m71 -180 c23 -23 15 -66 -15 -81 -14 -7 -50 -12 -80 -11 l-55 3
-3 39 c-5 61 0 66 72 66 46 0 69 -5 81 -16z"/>
<path d="M7100 1115 l0 -195 30 0 30 0 0 195 0 195 -30 0 -30 0 0 -195z"/>
<path d="M7272 1118 l3 -193 95 -2 c133 -4 148 0 142 37 l-4 30 -84 0 -84 0 0
83 c0 46 -3 118 -6 160 -7 77 -7 77 -36 77 l-28 0 2 -192z"/>
<path d="M7587 1303 c-4 -4 -7 -87 -7 -185 2 -163 3 -179 20 -188 50 -27 51
-24 48 183 l-3 192 -25 3 c-14 2 -29 0 -33 -5z"/>
<path d="M7730 1280 c0 -28 3 -30 40 -31 22 -1 46 -2 53 -3 9 -1 13 -42 15
-163 l2 -163 30 0 30 0 2 162 3 162 55 0 c55 1 55 1 58 34 l3 32 -145 0 -146
0 0 -30z"/>
<path d="M8078 1278 c107 -178 112 -190 112 -276 l0 -82 35 0 35 0 0 81 0 81
64 114 64 114 -32 0 c-30 0 -36 -6 -77 -80 -24 -44 -47 -80 -50 -80 -4 0 -27
36 -53 80 -44 76 -48 80 -82 80 l-36 0 20 -32z"/>
</g>
</svg>
